# xmcd
#
# Track frame offsets:
#	150
#	13100
#	27678
#	42590
#	59830
#	75610
#	90676
#	108370
#	124761
#	140146
#	157897
#	174701
#	192716
#	207711
#
# Disc length: 2962 seconds
#
# Revision: 1
# Processed by: cddbd v1.5.2PL0 Copyright (c) Steve Scherf et al.
# Submitted via: audiograbber 1.83.01
#
DISCID=d80b900e
DTITLE=Various Artist - CDX - Volume 480
DYEAR=2009
DGENRE=
TTITLE0=Toby Keith - American Ride
TTITLE1=Josh Thompson - Beer On The Table
TTITLE2=Anthony Smith - Bringin' Back The Sunshine
TTITLE3=The Lost Trailers - Country Folks (Livin' Loud)
TTITLE4=Tyler Dean - Taylor Swift
TTITLE5=Nikki Britt - And - You Happened
TTITLE6=Jason Mitchell - (I'm Yo) Chicken Man
TTITLE7=Mark Wayne Glasmire - Everything Is Gonna Be Alright
TTITLE8=Marie Angeline - Let's Get Down To Makin' Up
TTITLE9=Richie Fields - Losing You
TTITLE10=Timothy Craig - Tell Me Where It Hurts
TTITLE11=Broken Road - Thinkin' Outside The Box
TTITLE12=Hanna Mcneil - What Am I Getting Up For
TTITLE13=Lonnie Rodgers - Wild And Crazy Boys
EXTD=
EXTT0=
EXTT1=
EXTT2=
EXTT3=
EXTT4=
EXTT5=
EXTT6=
EXTT7=
EXTT8=
EXTT9=
EXTT10=
EXTT11=
EXTT12=
EXTT13=
PLAYORDER=
